<svg xmlns="http://www.w3.org/2000/svg" viewBox="0 0 512 512"><path d="M30 17.7h32c5 0 8.8-4 8.8-9S66.6 0 61.8 0h-53C3.8 0 0 4 0 8.8v53c0 5 4 8.8 8.8 8.8s9-4 9-8.8V30l95 95.4 12.6-12.5L30 17zM503.2 0h-53c-5 0-8.8 4-8.8 8.8s4 9 8.8 9H482l-95.4 95 12.5 12.6L495 30v32c0 5 4 8.8 9 8.8 4.8 0 8.7-4 8.7-8.8V9c0-4.8-4-8.8-8.7-8.8zm0 441.4c-5 0-9 4-9 8.8V482l-95-95.4-12.6 12.5 95.4 96h-32c-5 0-9 4-9 9s4 9 9 9h53c5 0 8.4-4 8.4-8.3v-53c0-5-4-8.7-8.8-8.7zm-441.4 53H30l95.4-95.3-12.4-12-95.6 95v-32c0-5-4-8-9-8S0 446 0 450v53c0 4.8 4 8.8 8.7 8.8h53c5 0 8.8-4 8.8-8.8 0-5-4-9-8.8-9z" fill="#C7CFE2"/><path d="M256 476.7c-121.7 0-220.7-99-220.7-220.7S134.3 35.3 256 35.3s220.7 99 220.7 220.7-99 220.7-220.7 220.7z" fill="#E4EAF6"/><path d="M256 450.2c-107 0-194.2-87-194.2-194.2S148.8 61.8 256 61.8s194.2 87 194.2 194.2-87 194.2-194.2 194.2z" fill="#C3E678"/><path d="M335.4 397.2c-107 0-194.2-87-194.2-194.2 0-49.8 19-95.4 50-129.8C116 100 61.8 171.7 61.8 256c0 107 87 194.2 194.2 194.2 57 0 108-24.7 143.5-64-20 7.2-41.6 11-64 11z" fill="#A5D76E"/><path fill="#E6AF78" d="M293 301v-29h-74v29l37 32.8"/><path d="M350.2 314.4l-51-12c-.6-.2-1.4-.5-2-1L256 325.7l-39.6-25.2c-1 1-2.3 1.6-3.7 2l-51 12c-7.3 1.7-12.6 8.3-12.6 16v32c0 4.7 4 8.4 9 8.4h197c5 0 9-4 9-9v-32c0-8-5.3-15-12.7-16z" fill="#EFF2FA"/><path d="M174.4 311.4l-12.6 3c-7.4 1.7-12.7 8.3-12.7 16v32c1 4.7 4 8.4 9 8.4h80c-25-14.8-47-35.2-63-59.4z" fill="#E4EAF6"/><path d="M219 272v30.5c46.6 16.8 74-25.2 74-25.2V272h-74z" fill="#D29B6E"/><path d="M202.6 177.6l3.6 78.8c.3 7.4 4 14.2 9.8 18.6l17 12.7c4.3 3.2 9.4 5 14.8 5h16.4c5.4 0 10.5-1.8 14.8-5l17-12.7c6-4.4 9.5-11.2 9.8-18.6l3.6-78.8H202.6z" fill="#F0C087"/><path d="M243.7 194c16.4 0 41-4 47-16.4h-88l3.5 78.8c.3 7.4 4 14.2 9.8 18.6l17 12.7c4.3 3.2 9.4 5 14.8 5h8.2c-8.2 0-24.7-16.5-24.7-37v-49.3c0-4 4.2-12.4 12.4-12.4z" fill="#E6AF78"/><path d="M332.7 344l26.6-23.8c2.2 2.8 3.6 6.3 3.6 10.2v32c0 4.7-4 8.4-9 8.4h-28v-11.4c0-6 2-11.4 6-15.3z" fill="#E4EAF6"/><path fill="#5B5D6E" d="M266.3 370.8h-20.6l2.6-37h15.4"/><path d="M266.3 325.6h-20.6v2.4c0 5.5 4.4 10 10 10h.7c5.5 0 10-4.5 10-10v-2.4z" fill="#515262"/><path d="M218.4 291.7l37.6 34s-10.5 5.2-23.5 16c-2.7 2-6.7 1.2-8.2-2L206.7 301l5.6-8.5c1.4-2 4.3-2.4 6-.8zm75.2 0l-37.6 34s10.5 5.2 23.5 16c2.7 2 6.7 1.2 8.2-2l17.6-38.8-5.6-9c-1.4-2-4.3-3-6-1z" fill="#E4EAF6"/><path d="M281 150.4l3.8 27.2c17.6 3.5 20 31 20.5 39 0 1.4.5 2.8 1.3 4l6.7 10.4s-2.3-17.2 8.2-28.7c0 0 3.6-68.4-40.6-52z" fill="#785550"/><path d="M317.4 229.3l-4.7 18.5c-.5 2.2-2.5 3.8-4.7 3.8-2.5 0-4.6-2-5-4.3l-2.3-19c-.7-5 3.3-9.6 8.4-9.6 6 0 10 5.2 9 10.6z" fill="#F0C087"/><path d="M206.5 143l6 4.2c-27.4 20.3-22.3 55-22.3 55 8.3 8.3 8.3 28.8 8.3 28.8l8.2-8.2s-3.2-23.7 12.3-33c14.4-8.3 27-4 39.8-4 34.4 0 44-13 42.4-28.7-1-8-13.4-25-45.2-24-13 0-37 4-49.5 11z" fill="#694B4B"/><path d="M204 182.2s-4.2-17.2 8.6-35c-27.5 20.3-22.4 55-22.4 55 8.3 8.3 8.3 28.8 8.3 28.8l8.2-8.2s-3.2-23.7 12.3-33c14.4-8.3 27-4 39.8-4 5.6 0 10.5-.3 14.8-1-26.5 1-42-19.2-69.5-2.6z" fill="#5A4146"/><path d="M194.6 229.3l4.7 18.5c.5 2.2 2.5 3.8 4.7 3.8 2.5 0 4.6-2 5-4.3l2.3-19c.7-5-3.3-9.6-8.4-9.6-6 0-10 5.2-9 10.6z" fill="#E6AF78"/><path d="M305.3 362.5h-20.5c-4.6 0-8.3 3.7-8.3 8.3h37c0-4.6-3.6-8.3-8.2-8.3z" fill="#E4EAF6"/></svg>