<svg xmlns="http://www.w3.org/2000/svg" viewBox="0 0 485 485"><path d="M455 102.5h30l-.2-94.8-94.8-.2v30h43.7L375 96.2C349 74.6 316 63 281.6 63c-23.6 0-46.3 5.5-66.8 15.8-20-10-42.6-15.8-66.5-15.8C66.5 62.8 0 129.3 0 211c0 76.7 58.5 140 133.2 147.5V406H91.7v30h41.5v41.5h30V436h41.6v-30h-41.6v-47.5c18.4-1.8 35.8-7 51.5-15 20.5 10.3 43.2 15.8 66.8 15.8 39.6 0 76.8-15.5 104.8-43.4 28-28 43.4-65.5 43.4-105 0-34.6-11.8-67.4-33.3-93.7L455 58.8v43.7zM148.2 329.3C83 329.3 30 276.3 30 211S83 92.8 148.2 92.8c12.8 0 25 2 36.6 5.8-2.8 2.4-5.5 5-8.2 7.6-57.7 57.8-57.7 152 0 209.7l8.2 7.4c-11.5 3.7-23.8 5.8-36.6 5.8zM266.5 211c0 40.6-20.5 76.4-51.7 97.7-6-4-11.7-8.8-17-14-46-46.2-46-121.2 0-167.3 5.3-5.2 11-10 17-14 31.2 21.3 51.7 57 51.7 97.6zm98.6 83.6c-22.2 22.4-52 34.7-83.4 34.7-12.7 0-25-2-36.8-5.8 31.7-27.2 51.8-67.5 51.8-112.5s-20-85.2-51.8-112.4c11.7-3.8 24-5.8 36.8-5.8 31.5 0 61.2 12.3 83.6 34.6s34.7 52 34.7 83.6-12.4 61.3-34.7 83.6z"/></svg>