<svg xmlns="http://www.w3.org/2000/svg" viewBox="0 0 467.07 467.07"><path fill="#808083" d="M240.7 443.83l-20.86-75.28H204.8l-20.86 75.28h-49.08v23.24h154.9v-23.24"/><path opacity=".3" fill="#5B5B5F" d="M289.77 443.83H240.7l-20.86-75.28h-7.53v98.52h77.5"/><circle cx="212.31" cy="166.22" r="159.15" fill="#5F95DD"/><path d="M258.32 50.3c-1.1 1.44-2.24 2.95-2.52 4.73-.46 2.9 1.45 5.6 3.26 7.92 2.74 3.53 5.8 7.27 10.14 8.35 8.08 2.02 15.3-6.07 23.6-6.74 6.68-.53 12.86 3.8 19.54 4.04 7.6.28 11.5-6.95 13.03-14.38A159.354 159.354 0 0 0 283.4 23.8c-6.1 7.9-19 18.63-25.08 26.5zm105.84 68.15c-2.94 8.97-11.2 6.6-21.93 7.42-13.77 1.06-22.13-5.7-34.85-8.24-11.8-2.35-22.17 5.78-27.68 15.57-4.1 7.26-10.5 23.34-5.13 30.76 2.58 3.54 6.44 5.9 10.2 8.15 5.4 3.3 10.85 6.5 16.7 8.9 6.73 2.7 14.45 4.6 18.73 10.5 3.52 4.9 3.8 11.3 3.2 17.2-1.67 16.2-15.7 30.5-2.9 45.2 4.83 5.5 11.4 8.6 18.7 8.6 20.25-26.7 32.26-59.9 32.26-96 0-16.6-2.56-32.7-7.3-47.8zM219.73 39.47c5.78 2.63 13.05.15 17.04-4.8 4-4.93 7.68-18.25 6.75-24.53a160.483 160.483 0 0 0-39.65-2.85c1.9 5.8 5.3 10.9 6.32 16.9 1 6.1 3.8 12.6 9.5 15.2zm-132.76 83.1a178.76 178.76 0 0 0 25.4 22.1c2.5 1.8 5.2 3.72 6.2 6.64 2.9 8.5-2.07 17.7 3 27.4 4.8 9.2 15.38 14.9 18.12 24.8 2.1 7.8-1.2 16.2.7 24.1 2.2 9.5 11.4 15.9 14.7 25.1 2.1 5.9 1.6 12.4 3.2 18.4s6.4 12.2 12.6 11.6c7.4-.7 10.5-9.9 11.1-17.4.6-7.5 1.3-16.5 8-19.9 3.5-1.8 8.2-1.5 11-4.4 4.6-4.7 0-12.5.1-19.1.1-7 6-12.5 11.3-17.1l20.3-17.3c4.7-4 5.9-11.1 4-17-2-5.8-6.5-10.5-11.6-13.9-5.5-3.7-12.7-6.1-18.8-3.6-4.7 2-8.3 6.6-13.3 6.9-4.7.3-8.7-3.4-10.9-7.5-2.3-4.1-3.3-8.7-5.6-12.8-6.5-11.7-17-11-28.3-12.7-11.5-1.7-23.1-7.1-31.6-14.9-1.4-1.2-2.8-2.6-3.3-4.4-3.08-9.9 14.5-14.3 20.6-14.1 5 .2 10 1.6 14.8.3 4.5-1.2 8-4.8 11.8-7.5 10.84-7.6 26.74 2.8 28.84-17.8.82-8.1-2.3-16-5.4-23.55-4.45-10.94-8.46-21.3-11.4-32.54C127.5 23.6 90 54.5 69.5 95.4c5.5 5.84 3.9 3.1 6.2 10.8 1.9 6.4 6.4 11.7 11 16.6z" fill="#ABCB57"/><path d="M366.76 25.9l11.77-11.76L364.4 0l-37.35 37.34 14.14 14.14 11.4-11.4c31.2 34.68 48.3 79.1 48.3 126.14 0 50.4-19.7 97.77-55.3 133.4-71.2 71.2-185.6 73.5-259.6 6.9l11.5-11.42-14.2-14.14L46 318.3l14.13 14.14L72 320.67c39.7 36.08 90 54.12 140.3 54.12 53.45-.1 106.9-20.4 147.57-61.1C399.3 274.3 421 221.9 421 166.2c0-52.4-19.2-101.82-54.23-140.3z" fill="#59595A"/><path d="M324.85 53.7L99.78 278.74c62.15 62.15 162.92 62.15 225.07 0s62.15-162.92 0-225.07z" opacity=".3" fill="#5B5B5F"/></svg>