<svg xmlns="http://www.w3.org/2000/svg" viewBox="0 0 512 512"><path d="M167.385 393.846h-49.231c-27.144 0-49.231 22.087-49.231 49.231 0 27.144 22.087 49.231 49.231 49.231h49.231v-98.462zM324.923 83.692c0-33.603-26.076-61.183-59.077-63.747v9.593A9.84 9.84 0 0 1 256 39.384a9.84 9.84 0 0 1-9.846-9.846v-9.593c-33.001 2.564-59.077 30.144-59.077 63.747v64h137.846v-64zm0 300.308V167.385H187.077v324.923h137.846zm68.923 9.846h-49.231v98.462h49.231c27.144 0 49.231-22.087 49.231-49.231 0-27.144-22.087-49.231-49.231-49.231z" fill="#e7e5d0"/><path d="M393.846 374.154h-49.231V83.692C344.615 37.548 307.039 0 260.846 0h-9.692c-46.192 0-83.769 37.548-83.769 83.692v290.461h-49.231c-38 0-68.923 30.923-68.923 68.923S80.154 512 118.154 512h275.692c38 0 68.923-30.923 68.923-68.923s-30.923-68.923-68.923-68.923zM187.077 83.692c0-33.603 26.076-61.183 59.077-63.747v9.593A9.84 9.84 0 0 0 256 39.384a9.84 9.84 0 0 0 9.846-9.846v-9.593c33.001 2.564 59.077 30.144 59.077 63.747v64H187.077v-64zM68.923 443.077c0-27.144 22.087-49.231 49.231-49.231h49.231v98.462h-49.231c-27.144 0-49.231-22.087-49.231-49.231zM187.077 384V167.385h137.846v324.923H187.077V384zm206.769 108.308h-49.231v-98.462h49.231c27.144 0 49.231 22.087 49.231 49.231 0 27.144-22.087 49.231-49.231 49.231z" fill="#314e55"/></svg>